<svg xmlns="http://www.w3.org/2000/svg" width="44.408" height="39.82" viewBox="0 0 44.408 39.82">
  <path id="cart" d="M331.161,2684.09h30.625a1.553,1.553,0,0,0,.929-.31,1.525,1.525,0,0,0,.548-.81l4.594-16.85a1.489,1.489,0,0,0,.027-.69,1.568,1.568,0,0,0-.286-.64,1.444,1.444,0,0,0-.539-.44,1.462,1.462,0,0,0-.68-.16h-35.41l-.574-3.33a1.528,1.528,0,0,0-1.531-1.27h-3.828a1.564,1.564,0,0,0-1.083.45,1.535,1.535,0,0,0,0,2.17,1.564,1.564,0,0,0,1.083.45h2.549l3.277,18.37a5.362,5.362,0,1,0,.3,10.72h1.286a5.371,5.371,0,0,0,.307,5.17,5.36,5.36,0,0,0,9.37-5.17h7.932a5.371,5.371,0,0,0,.307,5.17,5.359,5.359,0,0,0,9.882-2.55,5.361,5.361,0,0,0-.511-2.62h4.348a1.519,1.519,0,0,0,1.083-.45,1.542,1.542,0,0,0,.449-1.08,1.535,1.535,0,0,0-1.532-1.53H331.161a2.3,2.3,0,0,1-1.625-3.92A2.308,2.308,0,0,1,331.161,2684.09Zm33.212-16.84-3.759,13.78H333.97l-2.457-13.78Zm-24.791,26.8a2.265,2.265,0,0,1-.387,1.27,2.293,2.293,0,0,1-3.534.35,2.294,2.294,0,0,1,.349-3.53,2.237,2.237,0,0,1,1.276-.39,2.291,2.291,0,0,1,2.3,2.3Zm17.61,0a2.272,2.272,0,0,1-.387,1.27,2.293,2.293,0,0,1-3.534.35,2.293,2.293,0,0,1,.348-3.53,2.242,2.242,0,0,1,1.276-.39,2.292,2.292,0,0,1,2.3,2.3Z" transform="translate(-323.504 -2659.59)" fill="#a1a1a1"/>
</svg>
