<svg xmlns="http://www.w3.org/2000/svg" width="12.188" height="23.23" viewBox="0 0 12.188 23.23">
  <path id="fb" d="M1652,4083.78h2.35v11.11h5.31v-11.11h3.24l.02-.22.44-3.71.04-.28h-3.74v-1.95c0-.5.06-.78.23-.95s.52-.3,1.28-.3h2.19v-4.21h-3.48c-2.02,0-3.41.46-4.3,1.38a5.235,5.235,0,0,0-1.23,3.81v2.22h-2.6v4.21Zm7.47-2.78h2.32l-.16,1.35h-3.4v11.11h-2.45v-11.11h-2.6V4081h2.6v-3.65a3.977,3.977,0,0,1,.83-2.83h0c.57-.61,1.63-.93,3.27-.93h2.06v1.35h-.77a3.073,3.073,0,0,0-2.33.76h0a2.741,2.741,0,0,0-.61,1.91V4081h1.24Z" transform="translate(-1651.5 -4071.91)" fill="#a1a1a1" stroke="#a1a1a1" stroke-width="0.5"/>
</svg>
