<svg xmlns="http://www.w3.org/2000/svg" width="28.724" height="28.725" viewBox="0 0 28.724 28.725">
  <g id="insta" transform="translate(-1636.9 -3693.221)">
    <path id="Path_44" data-name="Path 44" d="M1726.42,4083.58c0,2.08.01,4.15,0,6.23a7.686,7.686,0,0,1-3.91,6.81,8.977,8.977,0,0,1-4.82,1.32c-3.77,0-7.54.02-11.32-.01a8.733,8.733,0,0,1-6.66-2.88,7.436,7.436,0,0,1-1.96-4.27,8.765,8.765,0,0,1-.05-1.03v-12.38a7.719,7.719,0,0,1,3.92-6.82,8.987,8.987,0,0,1,4.85-1.32c3.76,0,7.52-.02,11.28,0a8.773,8.773,0,0,1,6.69,2.91,7.407,7.407,0,0,1,1.93,4.24,17.237,17.237,0,0,1,.05,1.9C1726.43,4080.05,1726.42,4081.82,1726.42,4083.58Zm-26.57,0v6.37a5.353,5.353,0,0,0,1.53,3.76,6.65,6.65,0,0,0,4.92,2.08c3.81.03,7.61.01,11.41.01a6.855,6.855,0,0,0,3.46-.88,5.646,5.646,0,0,0,3.11-5.17v-12.53a5.262,5.262,0,0,0-1.51-3.74,6.6,6.6,0,0,0-4.91-2.1c-3.84-.03-7.68-.01-11.53-.01a6.746,6.746,0,0,0-3.37.87,5.672,5.672,0,0,0-3.11,5.18Z" transform="translate(-60.8 -376)" fill="#a1a1a1"/>
    <path id="Path_45" data-name="Path 45" d="M1712.08,4089.72a6.656,6.656,0,1,1,6.76-6.63A6.69,6.69,0,0,1,1712.08,4089.72Zm0-2.14a4.516,4.516,0,1,0-4.59-4.53A4.574,4.574,0,0,0,1712.08,4087.58Z" transform="translate(-60.8 -376)" fill="#a1a1a1"/>
    <path id="Path_46" data-name="Path 46" d="M1718.2,4075.86a1.421,1.421,0,1,1,1.43,1.47A1.446,1.446,0,0,1,1718.2,4075.86Z" transform="translate(-60.8 -376)" fill="#a1a1a1"/>
  </g>
</svg>
