<svg xmlns="http://www.w3.org/2000/svg" width="29.116" height="23.409" viewBox="0 0 29.116 23.409">
  <path id="twitter" d="M1774.95,4074.99h-.01a4.429,4.429,0,0,0-7.66,3.02,4.732,4.732,0,0,0,.11,1.01h0l.28,1.2.08.33-.33-.02-1.23-.07h0a16.954,16.954,0,0,1-6.97-1.87,16.628,16.628,0,0,1-4.07-2.92,5.654,5.654,0,0,0-.04.59,4.424,4.424,0,0,0,1.98,3.69h0l-.14.21.14-.21h0l.02.02.06.04c.06.04.13.09.23.15.19.13.46.31.74.5a17.131,17.131,0,0,0,1.6.96l.87.42-.96.06c-.71.04-1.52.04-2.16.03-.32,0-.59-.01-.79-.02h-.23l-.06-.01h-.02l.01-.25-.01.25h0c-.34-.02-.66-.05-.99-.1a4.461,4.461,0,0,0,3.21,2.65l3.57.63.04.48-3.52,1.17h-.01a5.833,5.833,0,0,1-.83.18,4.43,4.43,0,0,0,3.25,1.51l2.6.05.7.01-.55.43-2.05,1.61Zm0,0,.35.38.09.1.14-.03.42-.08m-1-.37,1,.37m0,0c-.14.12-.39.36-.62.57-.11.1-.21.2-.29.27l-.09.08-.03.03h0v.01h0l.17.18m.86-1.14-14.14,15.36a12.159,12.159,0,0,1-3.55,1.94h0c-.27.1-.54.18-.82.26a14.588,14.588,0,0,0,3.95.54,14.949,14.949,0,0,0,6.34-1.34h0a14.066,14.066,0,0,0,4.62-3.46,15.264,15.264,0,0,0,2.84-4.78,14.854,14.854,0,0,0,.97-5.2c0-.23,0-.46-.01-.67V4078l-.03-.49v-.14l.1-.08.33-.24a2.434,2.434,0,0,1-.27-.01,8.021,8.021,0,0,1-.82-.17c-.13-.04-.24-.07-.32-.09a.231.231,0,0,0-.09-.03l-.03-.01h-.01l.08-.24m0,0-.17-.18-.32.29.41.13Zm-9.23,1.52a6.777,6.777,0,0,0,.08,1.01,15.628,15.628,0,0,1-11.05-5.75l-.22-.28-.19.31a5.878,5.878,0,0,0,1.12,7.28,5.246,5.246,0,0,1-1.58-.58l-.37-.21v.43h0v.01h0v.01h0v.01h0v.01h0v.01h0v.01h0v.01h0a5.856,5.856,0,0,0,3.65,5.43c-.12.01-.25.01-.38.01a4.8,4.8,0,0,1-1.01-.1l-.41-.08.13.4a5.85,5.85,0,0,0,4.78,4.02,11,11,0,0,1-6.27,1.96,11.42,11.42,0,0,1-1.31-.08l-.16.45a15.891,15.891,0,0,0,8.72,2.58c10.48,0,16.2-8.69,16.2-16.21,0-.21-.01-.41-.01-.61a11.634,11.634,0,0,0,2.75-2.89l.47-.71-.78.35a11.169,11.169,0,0,1-2.12.69,5.823,5.823,0,0,0,1.7-2.61l.2-.62-.56.33a10.838,10.838,0,0,1-3.35,1.31,5.848,5.848,0,0,0-10.03,4.1Z" transform="translate(-1752.369 -4071.73)" fill="#a2a2a2" stroke="#a1a1a1" stroke-width="0.5"/>
</svg>
